<?xml version="1.0" encoding="utf-8"?>
<!-- Generator: Adobe Illustrator 27.0.0, SVG Export Plug-In . SVG Version: 6.00 Build 0)  -->
<svg version="1.1" id="Слой_1" xmlns="http://www.w3.org/2000/svg" xmlns:xlink="http://www.w3.org/1999/xlink" x="0px" y="0px"
	 viewBox="0 0 198 198" style="enable-background:new 0 0 198 198;" xml:space="preserve">
<style type="text/css">
	.st0{fill:none;stroke:#2EECC5;stroke-width:4;stroke-linecap:round;stroke-linejoin:round;}
	.st1{fill:none;}
</style>
<path class="st0" d="M193,100.2v46.7c0,28-18.7,46.7-46.7,46.7H52.9c-28,0-46.7-18.7-46.7-46.7v-46.7c0-25.4,15.3-43.2,39.1-46.1
	c2.4-0.4,5-0.6,7.6-0.6h93.4c2.4,0,4.8,0.1,7,0.5C177.4,56.8,193,74.6,193,100.2z"/>
<path class="st0" d="M153.3,54c-2.2-0.4-4.6-0.5-7-0.5H52.9c-2.6,0-5.1,0.2-7.6,0.6c1.3-2.6,3.2-5,5.4-7.3l30.4-30.4
	c12.8-12.7,33.5-12.7,46.3,0l16.3,16.5C149.8,38.8,152.9,46.2,153.3,54z"/>
<path class="st1" d="M193,104.9h-28c-10.3,0-18.7,8.4-18.7,18.7s8.4,18.7,18.7,18.7h28"/>
<path class="st0" d="M193,104.9h-28c-10.3,0-18.7,8.4-18.7,18.7s8.4,18.7,18.7,18.7h28"/>
</svg>
