<?xml version="1.0" encoding="utf-8"?>
<!-- Generator: Adobe Illustrator 27.0.0, SVG Export Plug-In . SVG Version: 6.00 Build 0)  -->
<svg version="1.1" id="Слой_1" xmlns="http://www.w3.org/2000/svg" xmlns:xlink="http://www.w3.org/1999/xlink" x="0px" y="0px"
	 viewBox="0 0 198 198" style="enable-background:new 0 0 198 198;" xml:space="preserve">
<style type="text/css">
	.st0{fill:none;stroke:#2EECC5;stroke-width:4;stroke-linecap:round;stroke-linejoin:round;stroke-miterlimit:10;}
</style>
<g>
	<path class="st0" d="M34.7,81.4h18.7c18.7,0,28.1-9.3,28.1-28.1V34.7c0-18.7-9.4-28-28.1-28H34.7c-18.7,0-28,9.3-28,28v18.7
		C6.6,72.1,16,81.4,34.7,81.4z"/>
	<path class="st0" d="M146.9,81.4h18.7c18.7,0,28.1-9.3,28.1-28.1V34.7c0-18.7-9.4-28-28.1-28h-18.7c-18.7,0-28.1,9.3-28.1,28v18.7
		C118.8,72.1,128.2,81.4,146.9,81.4z"/>
	<path class="st0" d="M146.9,193.6h18.7c18.7,0,28.1-9.4,28.1-28.1v-18.7c0-18.7-9.4-28.1-28.1-28.1h-18.7
		c-18.7,0-28.1,9.3-28.1,28.1v18.7C118.8,184.3,128.2,193.6,146.9,193.6z"/>
	<path class="st0" d="M34.7,193.6h18.7c18.7,0,28.1-9.4,28.1-28.1v-18.7c0-18.7-9.4-28.1-28.1-28.1H34.7c-18.7,0-28,9.3-28,28.1
		v18.7C6.6,184.3,16,193.6,34.7,193.6z"/>
</g>
</svg>
