<svg width="207" height="192" viewBox="0 0 207 192" fill="none" xmlns="http://www.w3.org/2000/svg">
<path d="M57.4659 191.2C34.7217 191.2 16.087 174.668 16.087 154.312V134.817C16.087 130.899 19.3362 127.65 23.2543 127.65C27.1725 127.65 30.4216 130.899 30.4216 134.817C30.4216 146.763 41.9845 155.746 57.4659 155.746C72.9474 155.746 84.5108 146.763 84.5108 134.817C84.5108 130.899 87.7598 127.65 91.678 127.65C95.5961 127.65 98.8453 130.899 98.8453 134.817V154.312C98.8453 174.668 80.3058 191.2 57.4659 191.2ZM32.9058 163.678C37.1107 171.514 46.5716 176.866 57.4659 176.866C68.3603 176.866 77.8212 171.418 82.0261 163.678C75.241 167.787 66.8312 170.176 57.4659 170.176C48.1006 170.176 39.6909 167.787 32.9058 163.678Z" fill="#2EECC5"/>
<path d="M57.4659 143.894C41.7934 143.894 27.7457 136.727 20.7696 125.355C17.7115 120.385 16.087 114.556 16.087 108.631C16.087 98.5966 20.4829 89.2313 28.5103 82.2551C43.9917 68.6852 70.6539 68.6857 86.2308 82.1605C94.2582 89.2323 98.7497 98.5966 98.7497 108.631C98.7497 114.556 97.1251 120.385 94.0671 125.355C87.1864 136.727 73.1385 143.894 57.4659 143.894ZM57.4659 86.0777C50.0119 86.0777 43.1315 88.5623 37.971 93.0539C33.0973 97.2587 30.4216 102.801 30.4216 108.631C30.4216 111.976 31.2813 115.035 33.0015 117.902C37.3975 125.164 46.7627 129.655 57.4659 129.655C68.1691 129.655 77.5344 125.164 81.8347 117.997C83.5549 115.226 84.4152 112.071 84.4152 108.726C84.4152 102.897 81.7396 97.3543 76.8658 93.0539C71.8009 88.5623 64.92 86.0777 57.4659 86.0777Z" fill="#2EECC5"/>
<path d="M57.4659 170.175C33.8616 170.175 16.087 154.98 16.087 134.912V108.632C16.087 88.2766 34.6261 71.744 57.4659 71.744C68.2647 71.744 78.5858 75.471 86.3264 82.1605C94.3538 89.2323 98.8453 98.5976 98.8453 108.632V134.912C98.8453 154.98 81.0703 170.175 57.4659 170.175ZM57.4659 86.0787C42.5579 86.0787 30.4216 96.2085 30.4216 108.632V134.912C30.4216 146.858 41.9845 155.841 57.4659 155.841C72.9474 155.841 84.5108 146.858 84.5108 134.912V108.632C84.5108 102.802 81.8352 97.2597 76.9614 92.9593C71.801 88.5633 64.92 86.0787 57.4659 86.0787Z" fill="#2EECC5"/>
<path d="M170.902 115.228C156.472 115.228 144.239 104.524 143.093 90.7631C142.328 82.8313 145.195 75.0906 150.929 69.4523C155.707 64.4829 162.492 61.7116 169.659 61.7116H189.632C199.093 61.9983 206.356 69.4523 206.356 78.6265V98.3127C206.356 107.487 199.093 114.941 189.919 115.228H170.902ZM189.346 76.0462H169.755C166.41 76.0462 163.352 77.2886 161.154 79.5821C158.383 82.2579 157.045 85.8894 157.427 89.5208C157.905 95.828 164.021 100.893 170.902 100.893H189.632C190.875 100.893 192.021 99.7462 192.021 98.3127V78.6265C192.021 77.193 190.875 76.1418 189.346 76.0462Z" fill="#2EECC5"/>
<path d="M141.853 176.865H117.962C114.044 176.865 110.795 173.615 110.795 169.697C110.795 165.779 114.044 162.53 117.962 162.53H141.853C166.509 162.53 182.468 146.571 182.468 121.915V115.226H170.905C156.474 115.226 144.242 104.523 143.095 90.7613C142.331 82.8294 145.199 75.0887 150.933 69.4505C155.711 64.4812 162.495 61.7098 169.662 61.7098H182.372V55.0203C182.372 32.6582 169.281 17.2722 148.066 14.7875C145.772 14.4052 143.764 14.4054 141.757 14.4054H55.7499C53.4564 14.4054 51.2583 14.5965 49.0603 14.8832C28.0362 17.559 15.1351 32.8493 15.1351 55.0203V74.1331C15.1351 78.0512 11.8859 81.3004 7.96777 81.3004C4.04963 81.3004 0.800446 78.0512 0.800446 74.1331V55.0203C0.800446 25.5865 18.958 4.27572 47.1495 0.739846C49.7297 0.357589 52.6918 0.0708008 55.7499 0.0708008H141.757C144.051 0.0708008 147.013 0.166364 150.072 0.644186C178.263 3.89337 196.707 25.2998 196.707 55.0203V68.8772C196.707 72.7952 193.458 76.0444 189.54 76.0444H169.662C166.317 76.0444 163.26 77.2867 161.062 79.5803C158.291 82.2561 156.952 85.8875 157.334 89.5189C157.812 95.8262 163.929 100.891 170.81 100.891H189.635C193.553 100.891 196.802 104.14 196.802 108.058V121.915C196.802 154.789 174.727 176.865 141.853 176.865Z" fill="#2EECC5"/>
</svg>
