<svg width="108" height="108" viewBox="0 0 108 108" fill="none" xmlns="http://www.w3.org/2000/svg">
<path d="M83.9736 29.7945C83.6737 29.7446 83.3238 29.7446 83.0238 29.7945C76.1253 29.5446 70.6265 23.8958 70.6265 16.8973C70.6265 9.74878 76.3753 4 83.5237 4C90.6722 4 96.421 9.79877 96.421 16.8973C96.371 23.8958 90.8722 29.5446 83.9736 29.7945Z" stroke="#292D32" stroke-width="7.49841" stroke-linecap="round" stroke-linejoin="round"/>
<path d="M78.8218 66.1865C85.6704 67.3362 93.2188 66.1365 98.5177 62.5872C105.566 57.8882 105.566 50.1899 98.5177 45.4909C93.1688 41.9417 85.5204 40.7419 78.6719 41.9416" stroke="#292D32" stroke-width="7.49841" stroke-linecap="round" stroke-linejoin="round"/>
<path d="M23.8287 29.7945C24.1287 29.7446 24.4786 29.7446 24.7785 29.7945C31.6771 29.5446 37.1759 23.8958 37.1759 16.8973C37.1759 9.74878 31.4271 4 24.2786 4C17.1301 4 11.3813 9.79877 11.3813 16.8973C11.4313 23.8958 16.9302 29.5446 23.8287 29.7945Z" stroke="#292D32" stroke-width="7.49841" stroke-linecap="round" stroke-linejoin="round"/>
<path d="M28.9822 66.1865C22.1337 67.3362 14.5853 66.1365 9.28638 62.5872C2.23787 57.8882 2.23787 50.1899 9.28638 45.4909C14.6353 41.9417 22.2836 40.7419 29.1322 41.9416" stroke="#292D32" stroke-width="7.49841" stroke-linecap="round" stroke-linejoin="round"/>
<path d="M53.9801 67.1367C53.6802 67.0868 53.3302 67.0868 53.0303 67.1367C46.1317 66.8868 40.6328 61.238 40.6328 54.2395C40.6328 47.091 46.3817 41.342 53.5302 41.342C60.6787 41.342 66.4275 47.141 66.4275 54.2395C66.3775 61.238 60.8786 66.9368 53.9801 67.1367Z" stroke="#292D32" stroke-width="7.49841" stroke-linecap="round" stroke-linejoin="round"/>
<path d="M68.5301 82.8826C60.5818 77.5837 47.4346 77.5837 39.4363 82.8826C32.3878 87.5816 32.3878 95.28 39.4363 99.979C47.4346 105.328 60.5318 105.328 68.5301 99.979" stroke="#292D32" stroke-width="7.49841" stroke-linecap="round" stroke-linejoin="round"/>
</svg>
