<svg width="141" height="141" viewBox="0 0 141 141" fill="none" xmlns="http://www.w3.org/2000/svg">
<path d="M83.4628 52.7316V71.6934H100.463C101.771 71.6934 102.425 73.0012 102.425 74.3089L99.8093 86.7321C99.8093 87.386 98.5016 88.0399 97.8477 88.0399H83.4628V135.771H63.8471V88.6937H52.7316C51.4238 88.6937 50.77 88.0399 50.77 86.7321V74.3089C50.77 73.0012 51.4238 72.3473 52.7316 72.3473H63.8471V50.77C63.8471 39.6544 72.3473 31.1543 83.4628 31.1543H101.117C102.425 31.1543 103.079 31.8082 103.079 33.1159V48.8084C103.079 50.1162 102.425 50.77 101.117 50.77H85.4244C84.1167 50.77 83.4628 51.4239 83.4628 52.7316Z" stroke="#2EECC5" stroke-width="9.80786" stroke-miterlimit="10" stroke-linecap="round"/>
<path d="M90.0014 135.771H50.77C18.0771 135.771 5 122.694 5 90.0014V50.77C5 18.0771 18.0771 5 50.77 5H90.0014C122.694 5 135.771 18.0771 135.771 50.77V90.0014C135.771 122.694 122.694 135.771 90.0014 135.771Z" stroke="#2EECC5" stroke-width="9.80786" stroke-linecap="round" stroke-linejoin="round"/>
</svg>
