<svg width="101" height="93" viewBox="0 0 101 93" fill="none" xmlns="http://www.w3.org/2000/svg">
<path d="M55.2092 37.1918H4.14658C2.24334 37.1918 0.665039 35.6135 0.665039 33.7103C0.665039 31.8071 2.24334 30.2288 4.14658 30.2288H55.2092C57.1124 30.2288 58.6907 31.8071 58.6907 33.7103C58.6907 35.6135 57.1124 37.1918 55.2092 37.1918Z" fill="#292D32"/>
<path d="M31.999 74.3283H22.7149C20.8117 74.3283 19.2334 72.75 19.2334 70.8468C19.2334 68.9435 20.8117 67.3652 22.7149 67.3652H31.999C33.9023 67.3652 35.4806 68.9435 35.4806 70.8468C35.4806 72.75 33.9023 74.3283 31.999 74.3283Z" fill="#292D32"/>
<path d="M62.1723 74.3283H43.6041C41.7009 74.3283 40.1226 72.75 40.1226 70.8468C40.1226 68.9435 41.7009 67.3652 43.6041 67.3652H62.1723C64.0756 67.3652 65.6539 68.9435 65.6539 70.8468C65.6539 72.75 64.0756 74.3283 62.1723 74.3283Z" fill="#292D32"/>
<path d="M76.3769 92.8965H24.7573C6.28192 92.8965 0.665039 87.3261 0.665039 69.0364V30.8788C0.665039 12.5891 6.28192 7.01855 24.7573 7.01855H56.5089C58.4122 7.01855 59.9905 8.59685 59.9905 10.5001C59.9905 12.4033 58.4122 13.9816 56.5089 13.9816H24.7573C10.1812 13.9816 7.62812 16.4884 7.62812 30.8788V69.0364C7.62812 83.4268 10.1812 85.9335 24.7573 85.9335H76.3769C90.953 85.9335 93.5061 83.4268 93.5061 69.0364V46.8474C93.5061 44.9441 95.0844 43.3658 96.9876 43.3658C98.8909 43.3658 100.469 44.9441 100.469 46.8474V69.0364C100.469 87.3261 94.8523 92.8965 76.3769 92.8965Z" fill="#292D32"/>
<path d="M88.2606 24.4262H73.7774C71.8742 24.4262 70.2959 22.8479 70.2959 20.9447V9.33957C70.2959 7.43633 71.8742 5.85803 73.7774 5.85803H88.3071C93.2741 5.85803 97.5912 10.1751 97.5912 15.1421C97.5447 20.2484 93.4133 24.4262 88.2606 24.4262ZM77.259 17.4632H88.3071C89.6068 17.4632 90.6281 16.4419 90.6281 15.1421C90.6281 14.1209 89.514 12.8211 88.3071 12.8211H77.259V17.4632Z" fill="#292D32"/>
<path d="M90.3496 36.0313H73.7774C71.8742 36.0313 70.2959 34.453 70.2959 32.5498V20.9447C70.2959 19.0414 71.8742 17.4631 73.7774 17.4631H90.3496C95.92 17.4631 100.469 21.641 100.469 26.7472C100.469 31.8535 95.92 36.0313 90.3496 36.0313ZM77.259 29.0683H90.3496C92.0671 29.0683 93.5062 28.0006 93.5062 26.7472C93.5062 25.4939 92.0671 24.4262 90.3496 24.4262H77.259V29.0683Z" fill="#292D32"/>
<path d="M81.9464 41.8339C80.0431 41.8339 78.4648 40.2556 78.4648 38.3523V32.5498C78.4648 30.6465 80.0431 29.0682 81.9464 29.0682C83.8496 29.0682 85.4279 30.6465 85.4279 32.5498V38.3523C85.4279 40.302 83.896 41.8339 81.9464 41.8339Z" fill="#292D32"/>
<path d="M81.9464 12.8211C80.0431 12.8211 78.4648 11.2428 78.4648 9.33953V3.53696C78.4648 1.63372 80.0431 0.0554199 81.9464 0.0554199C83.8496 0.0554199 85.4279 1.63372 85.4279 3.53696V9.33953C85.4279 11.2428 83.896 12.8211 81.9464 12.8211Z" fill="#292D32"/>
<path d="M79.3014 12.8211H69.1353C67.2321 12.8211 65.6538 11.2428 65.6538 9.33957C65.6538 7.43633 67.2321 5.85803 69.1353 5.85803H79.3014C81.2047 5.85803 82.783 7.43633 82.783 9.33957C82.783 11.2428 81.2047 12.8211 79.3014 12.8211Z" fill="#292D32"/>
<path d="M79.3014 36.0313H69.1353C67.2321 36.0313 65.6538 34.453 65.6538 32.5498C65.6538 30.6465 67.2321 29.0682 69.1353 29.0682H79.3014C81.2047 29.0682 82.783 30.6465 82.783 32.5498C82.783 34.453 81.2047 36.0313 79.3014 36.0313Z" fill="#292D32"/>
</svg>
