<svg width="178" height="182" viewBox="0 0 178 182" fill="none" xmlns="http://www.w3.org/2000/svg">
<path d="M7 7H21.6384C30.7242 7 37.875 14.8239 37.1179 23.8256L30.1353 107.617C28.9575 121.33 39.8099 133.108 53.6069 133.108H143.204C155.318 133.108 165.918 123.181 166.844 111.151L171.386 48.0546C172.396 34.0893 161.796 22.732 147.746 22.732H39.1371" stroke="#2EECC5" stroke-width="12.6192" stroke-miterlimit="10" stroke-linecap="round" stroke-linejoin="round"/>
<path d="M126.883 175.256C132.691 175.256 137.399 170.549 137.399 164.74C137.399 158.932 132.691 154.224 126.883 154.224C121.074 154.224 116.367 158.932 116.367 164.74C116.367 170.549 121.074 175.256 126.883 175.256Z" stroke="#2EECC5" stroke-width="12.6192" stroke-miterlimit="10" stroke-linecap="round" stroke-linejoin="round"/>
<path d="M59.5801 175.256C65.388 175.256 70.0961 170.549 70.0961 164.74C70.0961 158.932 65.388 154.224 59.5801 154.224C53.7722 154.224 49.0641 158.932 49.0641 164.74C49.0641 170.549 53.7722 175.256 59.5801 175.256Z" stroke="#2EECC5" stroke-width="12.6192" stroke-miterlimit="10" stroke-linecap="round" stroke-linejoin="round"/>
<path d="M65.8897 57.4769H166.844" stroke="#2EECC5" stroke-width="12.6192" stroke-miterlimit="10" stroke-linecap="round" stroke-linejoin="round"/>
</svg>
