<svg width="165" height="165" viewBox="0 0 165 165" fill="none" xmlns="http://www.w3.org/2000/svg">
<path d="M90.2579 114.736H75.8778C65.7048 114.736 57.3673 106.169 57.3673 95.6138C57.3673 92.4777 59.968 89.8771 63.104 89.8771C66.2401 89.8771 68.8408 92.4777 68.8408 95.6138C68.8408 99.8207 71.9769 103.263 75.8778 103.263H90.2579C93.241 103.263 95.6122 100.586 95.6122 97.2966C95.6122 93.1661 94.4649 92.5542 91.8642 91.6363L68.8408 83.6049C63.9454 81.8456 57.3673 78.3271 57.3673 67.0831C57.3673 57.5221 64.9399 49.6437 74.1951 49.6437H88.5751C98.7483 49.6437 107.086 58.2105 107.086 68.7659C107.086 71.902 104.485 74.5026 101.349 74.5026C98.2128 74.5026 95.6122 71.902 95.6122 68.7659C95.6122 64.5592 92.4761 61.1171 88.5751 61.1171H74.1951C71.212 61.1171 68.8408 63.7943 68.8408 67.0831C68.8408 71.2136 69.9881 71.8255 72.5888 72.7434L95.6122 80.7748C100.508 82.534 107.086 86.0526 107.086 97.2966C107.086 106.934 99.5132 114.736 90.2579 114.736Z" fill="#2EECC5"/>
<path d="M82.2265 122.384C79.0904 122.384 76.4897 119.783 76.4897 116.647V47.8061C76.4897 44.67 79.0904 42.0693 82.2265 42.0693C85.3626 42.0693 87.9632 44.67 87.9632 47.8061V116.647C87.9632 119.783 85.3626 122.384 82.2265 122.384Z" fill="#2EECC5"/>
<path d="M82.2265 164.453C36.8681 164.453 0 127.585 0 82.2265C0 36.8681 36.8681 0 82.2265 0C85.3626 0 87.9632 2.60065 87.9632 5.73673C87.9632 8.87281 85.3626 11.4735 82.2265 11.4735C43.2167 11.4735 11.4735 43.2167 11.4735 82.2265C11.4735 121.236 43.2167 152.98 82.2265 152.98C121.236 152.98 152.98 121.236 152.98 82.2265C152.98 79.0904 155.58 76.4898 158.716 76.4898C161.852 76.4898 164.453 79.0904 164.453 82.2265C164.453 127.585 127.585 164.453 82.2265 164.453Z" fill="#2EECC5"/>
<path d="M158.716 42.0694C155.58 42.0694 152.98 39.4687 152.98 36.3326V11.4735H128.12C124.984 11.4735 122.384 8.87281 122.384 5.73673C122.384 2.60065 124.984 0 128.12 0H158.716C161.852 0 164.453 2.60065 164.453 5.73673V36.3326C164.453 39.4687 161.852 42.0694 158.716 42.0694Z" fill="#2EECC5"/>
<path d="M120.467 49.7179C119.014 49.7179 117.561 49.1825 116.413 48.0351C114.195 45.8169 114.195 42.1454 116.413 39.9272L154.658 1.68233C156.876 -0.535874 160.548 -0.535874 162.766 1.68233C164.984 3.90053 164.984 7.57204 162.766 9.79024L124.521 48.0351C123.374 49.1825 121.921 49.7179 120.467 49.7179Z" fill="#2EECC5"/>
</svg>
