<svg width="289" height="277" viewBox="0 0 289 277" fill="none" xmlns="http://www.w3.org/2000/svg">
<g filter="url(#filter0_d_1_373)">
<path d="M107.335 210.912C89.1384 210.912 74.2299 197.685 74.2299 181.4V165.803C74.2299 162.668 76.8294 160.069 79.964 160.069C83.0987 160.069 85.6982 162.668 85.6982 165.803C85.6982 175.36 94.949 182.547 107.335 182.547C119.721 182.547 128.972 175.36 128.972 165.803C128.972 162.668 131.571 160.069 134.706 160.069C137.84 160.069 140.44 162.668 140.44 165.803V181.4C140.44 197.685 125.608 210.912 107.335 210.912ZM87.6856 188.892C91.0497 195.162 98.6188 199.443 107.335 199.443C116.051 199.443 123.62 195.085 126.984 188.892C121.556 192.18 114.827 194.091 107.335 194.091C99.8421 194.091 93.114 192.18 87.6856 188.892Z" fill="#2EECC5"/>
<path d="M107.335 173.065C94.7961 173.065 83.5574 167.33 77.9761 158.232C75.5295 154.257 74.2299 149.593 74.2299 144.853C74.2299 136.825 77.7467 129.332 84.169 123.751C96.5548 112.894 117.886 112.895 130.348 123.675C136.77 129.333 140.363 136.825 140.363 144.853C140.363 149.593 139.064 154.257 136.617 158.232C131.112 167.33 119.873 173.065 107.335 173.065ZM107.335 126.809C101.371 126.809 95.8666 128.797 91.738 132.39C87.8388 135.754 85.6982 140.189 85.6982 144.853C85.6982 147.528 86.386 149.976 87.7622 152.269C91.2791 158.08 98.7717 161.673 107.335 161.673C115.898 161.673 123.39 158.08 126.831 152.346C128.207 150.129 128.895 147.605 128.895 144.929C128.895 140.265 126.755 135.831 122.855 132.39C118.803 128.797 113.298 126.809 107.335 126.809Z" fill="#2EECC5"/>
<path d="M107.335 194.091C88.4503 194.091 74.2299 181.934 74.2299 165.879V144.853C74.2299 128.568 89.0619 115.342 107.335 115.342C115.974 115.342 124.232 118.323 130.424 123.675C136.847 129.333 140.44 136.826 140.44 144.853V165.879C140.44 181.934 126.219 194.091 107.335 194.091ZM107.335 126.81C95.4077 126.81 85.6982 134.914 85.6982 144.853V165.879C85.6982 175.435 94.949 182.622 107.335 182.622C119.721 182.622 128.972 175.435 128.972 165.879V144.853C128.972 140.19 126.831 135.755 122.932 132.315C118.803 128.798 113.298 126.81 107.335 126.81Z" fill="#2EECC5"/>
<path d="M198.088 150.13C186.543 150.13 176.757 141.567 175.84 130.558C175.228 124.212 177.522 118.019 182.109 113.508C185.932 109.532 191.36 107.315 197.094 107.315H213.073C220.642 107.545 226.453 113.508 226.453 120.848V136.598C226.453 143.937 220.642 149.901 213.303 150.13H198.088ZM212.844 118.783H197.171C194.495 118.783 192.048 119.777 190.29 121.612C188.072 123.753 187.002 126.658 187.308 129.564C187.69 134.61 192.583 138.662 198.088 138.662H213.073C214.067 138.662 214.985 137.744 214.985 136.598V120.848C214.985 119.701 214.067 118.86 212.844 118.783Z" fill="#2EECC5"/>
<path d="M174.848 199.442H155.734C152.599 199.442 150 196.843 150 193.708C150 190.574 152.599 187.974 155.734 187.974H174.848C194.573 187.974 207.341 175.206 207.341 155.481V150.129H198.09C186.546 150.129 176.759 141.566 175.842 130.556C175.23 124.21 177.525 118.017 182.112 113.507C185.935 109.531 191.362 107.314 197.096 107.314H207.265V101.962C207.265 84.0713 196.791 71.7618 179.818 69.774C177.983 69.4682 176.377 69.4683 174.771 69.4683H105.962C104.127 69.4683 102.368 69.6211 100.61 69.8505C83.7897 71.9913 73.4683 84.2242 73.4683 101.962V117.253C73.4683 120.388 70.8688 122.987 67.7342 122.987C64.5995 122.987 62 120.388 62 117.253V101.962C62 78.4136 76.5268 61.3641 99.0812 58.5353C101.145 58.2294 103.515 58 105.962 58H174.771C176.606 58 178.977 58.0765 181.423 58.4587C203.977 61.0582 218.733 78.1842 218.733 101.962V113.048C218.733 116.183 216.134 118.782 212.999 118.782H197.096C194.42 118.782 191.975 119.776 190.216 121.611C187.999 123.752 186.928 126.657 187.234 129.562C187.616 134.608 192.51 138.66 198.015 138.66H213.076C216.21 138.66 218.81 141.26 218.81 144.395V155.481C218.81 181.781 201.149 199.442 174.848 199.442Z" fill="#2EECC5"/>
</g>
<defs>
<filter id="filter0_d_1_373" x="0" y="0" width="288.453" height="276.911" filterUnits="userSpaceOnUse" color-interpolation-filters="sRGB">
<feFlood flood-opacity="0" result="BackgroundImageFix"/>
<feColorMatrix in="SourceAlpha" type="matrix" values="0 0 0 0 0 0 0 0 0 0 0 0 0 0 0 0 0 0 127 0" result="hardAlpha"/>
<feOffset dy="4"/>
<feGaussianBlur stdDeviation="31"/>
<feComposite in2="hardAlpha" operator="out"/>
<feColorMatrix type="matrix" values="0 0 0 0 0.180392 0 0 0 0 0.92549 0 0 0 0 0.772549 0 0 0 0.25 0"/>
<feBlend mode="normal" in2="BackgroundImageFix" result="effect1_dropShadow_1_373"/>
<feBlend mode="normal" in="SourceGraphic" in2="effect1_dropShadow_1_373" result="shape"/>
</filter>
</defs>
</svg>
