<svg width="141" height="141" viewBox="0 0 141 141" fill="none" xmlns="http://www.w3.org/2000/svg">
<path d="M50.77 135.771H90.0014C122.694 135.771 135.771 122.694 135.771 90.0014V50.77C135.771 18.0771 122.694 5 90.0014 5H50.77C18.0771 5 5 18.0771 5 50.77V90.0014C5 122.694 18.0771 135.771 50.77 135.771Z" stroke="#2EECC5" stroke-width="9.80786" stroke-linecap="round" stroke-linejoin="round"/>
<path d="M70.3857 93.2705C83.0248 93.2705 93.2707 83.0245 93.2707 70.3855C93.2707 57.7464 83.0248 47.5005 70.3857 47.5005C57.7467 47.5005 47.5007 57.7464 47.5007 70.3855C47.5007 83.0245 57.7467 93.2705 70.3857 93.2705Z" stroke="#2EECC5" stroke-width="9.80786" stroke-linecap="round" stroke-linejoin="round"/>
<path d="M107.238 37.6929H107.314" stroke="#2EECC5" stroke-width="13.0771" stroke-linecap="round" stroke-linejoin="round"/>
</svg>
