<svg width="363" height="371" viewBox="0 0 363 371" fill="none" xmlns="http://www.w3.org/2000/svg">
<g filter="url(#filter0_d_46_26)">
<path d="M212.627 308.583H150.694C94.0371 308.583 69.9521 284.384 69.9521 227.842V176.346C69.9521 171.643 73.8516 167.744 78.5539 167.744C83.2562 167.744 87.1557 171.643 87.1557 176.346V227.842C87.1557 274.75 103.786 291.38 150.694 291.38H212.512C259.421 291.38 276.051 274.75 276.051 227.842V176.346C276.051 171.643 279.95 167.744 284.652 167.744C289.355 167.744 293.254 171.643 293.254 176.346V227.842C293.369 284.384 269.169 308.583 212.627 308.583Z" fill="#2EECC5"/>
<path d="M181.652 193.894C169.036 193.894 157.567 188.962 149.424 179.901C141.281 170.841 137.496 159.028 138.758 146.412L146.442 69.7989C146.901 65.4407 150.571 62 155.044 62H208.604C213.077 62 216.747 65.326 217.205 69.7989L224.89 146.412C226.151 159.028 222.367 170.841 214.224 179.901C205.736 188.962 194.267 193.894 181.652 193.894ZM162.728 79.2035L155.847 148.132C155.044 155.816 157.338 163.042 162.154 168.318C171.903 179.099 191.4 179.099 201.149 168.318C205.966 162.927 208.26 155.702 207.457 148.132L200.575 79.2035H162.728Z" fill="#2EECC5"/>
<path d="M254.032 193.894C230.75 193.894 209.991 175.084 207.583 151.917L199.555 71.5193C199.325 69.1108 200.128 66.7023 201.734 64.8673C203.339 63.0322 205.633 62 208.156 62H243.137C276.856 62 292.568 76.1069 297.271 110.743L300.482 142.627C301.858 156.161 297.729 169.006 288.898 178.755C280.067 188.503 267.681 193.894 254.032 193.894ZM217.676 79.2035L224.786 150.197C226.277 164.533 239.581 176.69 254.032 176.69C262.749 176.69 270.548 173.364 276.168 167.285C281.673 161.207 284.196 153.064 283.393 144.347L280.182 112.808C276.626 86.8877 268.254 79.2035 243.137 79.2035H217.676Z" fill="#2EECC5"/>
<path d="M108.709 193.894C95.061 193.894 82.6745 188.503 73.8433 178.755C65.0122 169.006 60.8834 156.161 62.2596 142.627L65.3563 111.087C70.1733 76.1069 85.8858 62 119.605 62H154.585C156.994 62 159.287 63.0322 161.007 64.8673C162.728 66.7023 163.416 69.1108 163.186 71.5193L155.159 151.917C152.75 175.084 131.991 193.894 108.709 193.894ZM119.605 79.2035C94.4876 79.2035 86.1152 86.7731 82.4451 113.037L79.3485 144.347C78.4309 153.064 81.0688 161.207 86.5739 167.285C92.0791 173.364 99.878 176.69 108.709 176.69C123.16 176.69 136.579 164.533 137.955 150.197L145.066 79.2035H119.605Z" fill="#2EECC5"/>
<path d="M210.335 308.584H152.99C148.288 308.584 144.389 304.684 144.389 299.982V271.309C144.389 247.225 157.578 234.035 181.663 234.035C205.748 234.035 218.937 247.225 218.937 271.309V299.982C218.937 304.684 215.038 308.584 210.335 308.584ZM161.592 291.38H201.734V271.309C201.734 256.858 196.114 251.239 181.663 251.239C167.212 251.239 161.592 256.858 161.592 271.309V291.38Z" fill="#2EECC5"/>
</g>
<defs>
<filter id="filter0_d_46_26" x="0" y="0" width="362.742" height="370.584" filterUnits="userSpaceOnUse" color-interpolation-filters="sRGB">
<feFlood flood-opacity="0" result="BackgroundImageFix"/>
<feColorMatrix in="SourceAlpha" type="matrix" values="0 0 0 0 0 0 0 0 0 0 0 0 0 0 0 0 0 0 127 0" result="hardAlpha"/>
<feOffset/>
<feGaussianBlur stdDeviation="31"/>
<feComposite in2="hardAlpha" operator="out"/>
<feColorMatrix type="matrix" values="0 0 0 0 0.180392 0 0 0 0 0.92549 0 0 0 0 0.772549 0 0 0 0.25 0"/>
<feBlend mode="normal" in2="BackgroundImageFix" result="effect1_dropShadow_46_26"/>
<feBlend mode="normal" in="SourceGraphic" in2="effect1_dropShadow_46_26" result="shape"/>
</filter>
</defs>
</svg>
