<svg width="109" height="112" viewBox="0 0 109 112" fill="none" xmlns="http://www.w3.org/2000/svg">
<path d="M8.21924 74.928C8.21924 98.1387 17.5242 107.444 40.7349 107.444H68.5982C91.8089 107.444 101.114 98.1387 101.114 74.928V51.7173" stroke="#292D32" stroke-width="7.75413" stroke-linecap="round" stroke-linejoin="round"/>
<path d="M54.6961 55.7496C64.1561 55.7496 71.1349 48.0472 70.2044 38.5872L66.7925 4.05542H42.6512L39.1877 38.5872C38.2572 48.0472 45.2361 55.7496 54.6961 55.7496Z" stroke="#292D32" stroke-width="7.75413" stroke-linecap="round" stroke-linejoin="round"/>
<path d="M87.3163 55.7496C97.7585 55.7496 105.409 47.2718 104.375 36.8812L102.928 22.6653C101.067 9.22484 95.8975 4.05542 82.3536 4.05542H66.5869L70.2055 40.2931C71.0843 48.8226 78.7867 55.7496 87.3163 55.7496Z" stroke="#292D32" stroke-width="7.75413" stroke-linecap="round" stroke-linejoin="round"/>
<path d="M21.8177 55.7496C30.3473 55.7496 38.0497 48.8226 38.8768 40.2931L40.0141 28.8686L42.4954 4.05542H26.7287C13.1848 4.05542 8.01537 9.22484 6.15438 22.6653L4.75863 36.8812C3.72475 47.2718 11.3755 55.7496 21.8177 55.7496Z" stroke="#292D32" stroke-width="7.75413" stroke-linecap="round" stroke-linejoin="round"/>
<path d="M54.6931 81.5967C46.0602 81.5967 41.7695 85.8873 41.7695 94.5202V107.444H67.6166V94.5202C67.6166 85.8873 63.326 81.5967 54.6931 81.5967Z" stroke="#292D32" stroke-width="7.75413" stroke-linecap="round" stroke-linejoin="round"/>
</svg>
