<svg width="101" height="100" viewBox="0 0 101 100" fill="none" xmlns="http://www.w3.org/2000/svg">
<path d="M76.8637 99.1921C74.4027 99.1921 71.2452 98.4028 67.2983 96.0811L53.4145 87.8622C51.9751 87.0264 49.189 87.0264 47.796 87.8622L33.8659 96.0811C25.6471 100.957 20.8179 99.0064 18.6355 97.4277C16.4996 95.8489 13.1563 91.8091 15.3387 82.5223L18.6355 68.2671C19.007 66.7812 18.2641 64.2273 17.1497 63.1129L5.63402 51.5973C-0.123791 45.8395 0.340548 40.9175 1.12993 38.5028C1.9193 36.0882 4.42674 31.8163 12.4134 30.4697L27.2258 28.0087C28.6189 27.7765 30.6155 26.2906 31.2192 25.0369L39.438 8.64571C43.1526 1.16984 48.0282 0.0554199 50.582 0.0554199C53.1359 0.0554199 58.0115 1.16984 61.7262 8.64571L69.8986 24.9905C70.5487 26.2442 72.5453 27.7301 73.9383 27.9623L88.7508 30.4233C96.7839 31.7698 99.2913 36.0418 100.034 38.4563C100.777 40.871 101.242 45.793 95.5301 51.5509L84.0145 63.1129C82.9001 64.2273 82.2036 66.7348 82.5286 68.2671L85.8254 82.5223C87.9614 91.8091 84.6646 95.8489 82.5286 97.4277C81.3678 98.2635 79.5104 99.1921 76.8637 99.1921ZM50.582 80.2471C52.8573 80.2471 55.1326 80.8043 56.9435 81.8723L70.8273 90.0911C74.867 92.5056 77.4209 92.5056 78.396 91.8091C79.3711 91.1126 80.0676 88.6516 79.0461 84.1011L75.7493 69.8459C74.867 65.9918 76.3065 61.0234 79.0925 58.1909L90.6081 46.6753C92.8834 44.4 93.905 42.1712 93.4406 40.6389C92.9298 39.1064 90.7939 37.8527 87.6364 37.3419L72.8239 34.8809C69.2485 34.2773 65.3481 31.3984 63.7229 28.148L55.5505 11.8032C54.0646 8.83145 52.2072 7.06695 50.582 7.06695C48.9569 7.06695 47.0995 8.83145 45.66 11.8032L37.4413 28.148C35.8161 31.3984 31.9157 34.2773 28.3402 34.8809L13.5742 37.3419C10.4167 37.8527 8.28076 39.1064 7.76999 40.6389C7.25921 42.1712 8.3272 44.4465 10.6025 46.6753L22.1181 58.1909C24.9041 60.977 26.3436 65.9918 25.4613 69.8459L22.1645 84.1011C21.0965 88.6981 21.8395 91.1126 22.8146 91.8091C23.7897 92.5056 26.2972 92.4592 30.3833 90.0911L44.267 81.8723C46.0315 80.8043 48.3068 80.2471 50.582 80.2471Z" fill="#292D32"/>
</svg>
