<?xml version="1.0" encoding="utf-8"?>
<!-- Generator: Adobe Illustrator 27.0.0, SVG Export Plug-In . SVG Version: 6.00 Build 0)  -->
<svg version="1.1" id="Слой_1" xmlns="http://www.w3.org/2000/svg" xmlns:xlink="http://www.w3.org/1999/xlink" x="0px" y="0px"
	 viewBox="0 0 2598 914.2" style="enable-background:new 0 0 2598 914.2;" xml:space="preserve">
<style type="text/css">
	.st0{display:none;}
	.st1{fill:#E6E6E6;}
	.st2{fill:#FFFFFF;stroke:#FFFFFF;stroke-miterlimit:10;}
	.st3{fill:#FFFFFF;}
	.st4{opacity:0.89;}
</style>
<g>
	<g>
		<rect x="-1916.4" y="-12.5" class="st0" width="1920" height="1080"/>
	</g>
</g>
<g>
	<g>
		
			<image style="overflow:visible;enable-background:new    ;" width="1175" height="333" xlink:href="12CE91AC40E10543.png"  transform="matrix(1.3205 0 0 1.3205 1046.4447 251.7923)">
		</image>
	</g>
	<g>
		<path class="st1" d="M1302.6,412.4c0,1-0.1,1.9-0.2,2.6c-0.2,0.8-0.4,1.4-0.7,1.9c-0.3,0.5-0.7,0.9-1.2,1.2
			c-0.5,0.3-1,0.4-1.5,0.4h-44.3v133.7c0,0.5-0.1,0.9-0.3,1.3c-0.2,0.4-0.6,0.7-1.2,0.9c-0.5,0.2-1.3,0.4-2.2,0.6
			c-0.9,0.2-2,0.2-3.3,0.2s-2.4-0.1-3.3-0.2c-0.9-0.2-1.6-0.3-2.2-0.6c-0.5-0.2-0.9-0.5-1.1-0.9c-0.2-0.4-0.3-0.8-0.3-1.3V418.4
			h-44.3c-0.6,0-1.1-0.1-1.5-0.4c-0.4-0.3-0.8-0.6-1.1-1.2c-0.3-0.5-0.5-1.1-0.7-1.9c-0.2-0.8-0.2-1.6-0.2-2.6c0-1.1,0.1-2,0.2-2.8
			c0.1-0.8,0.4-1.5,0.7-2c0.3-0.5,0.7-0.9,1.1-1.2c0.4-0.3,0.9-0.4,1.5-0.4h102.6c0.5,0,1,0.1,1.5,0.4c0.5,0.3,0.8,0.7,1.2,1.2
			c0.3,0.5,0.5,1.2,0.7,2C1302.5,410.3,1302.6,411.3,1302.6,412.4z M1413.4,549.8c0.5,1.2,0.7,2.1,0.6,2.8c0,0.7-0.3,1.3-0.8,1.7
			s-1.3,0.6-2.3,0.7c-1,0.1-2.3,0.2-4,0.2c-1.6,0-2.9-0.1-3.9-0.2c-1-0.1-1.7-0.3-2.2-0.5c-0.5-0.2-0.9-0.5-1.2-0.9
			c-0.3-0.4-0.5-0.8-0.8-1.4l-14.2-39.6h-65.2l-13.7,39.4c-0.2,0.5-0.4,1-0.7,1.4c-0.3,0.4-0.7,0.7-1.3,1c-0.5,0.3-1.3,0.5-2.2,0.6
			c-1,0.2-2.2,0.2-3.6,0.2c-1.6,0-3-0.1-4-0.2c-1.1-0.2-1.9-0.4-2.4-0.8c-0.5-0.4-0.8-0.9-0.8-1.6c0-0.7,0.2-1.6,0.6-2.8l52-141.3
			c0.2-0.6,0.6-1.1,1-1.5c0.5-0.4,1-0.7,1.8-1c0.7-0.2,1.6-0.4,2.6-0.5s2.2-0.2,3.5-0.2c1.4,0,2.6,0.1,3.6,0.2
			c1,0.1,1.9,0.3,2.6,0.5c0.7,0.2,1.3,0.6,1.7,1c0.4,0.4,0.7,0.9,1,1.5L1413.4,549.8z M1351.7,421h-0.1l-28,79.9h56.8L1351.7,421z
			 M1514.8,548c0,1.1-0.1,2-0.2,2.8c-0.2,0.8-0.4,1.4-0.7,2c-0.3,0.6-0.7,1-1.2,1.3s-1,0.4-1.6,0.4h-64.4c-1.4,0-2.8-0.5-4.3-1.5
			c-1.5-1-2.2-2.9-2.2-5.7v-139c0-0.5,0.1-0.9,0.3-1.3c0.2-0.4,0.6-0.7,1.2-0.9c0.5-0.2,1.3-0.4,2.2-0.6c0.9-0.2,2-0.2,3.3-0.2
			c1.4,0,2.5,0.1,3.4,0.2c0.9,0.2,1.6,0.3,2.1,0.6c0.5,0.2,0.9,0.5,1.2,0.9c0.2,0.4,0.3,0.8,0.3,1.3v133.5h56.8
			c0.6,0,1.2,0.1,1.6,0.4c0.5,0.3,0.8,0.6,1.2,1.2c0.3,0.5,0.5,1.2,0.7,1.9C1514.8,546,1514.8,547,1514.8,548z M1617.1,409.6
			c-0.2-0.8-0.4-1.5-0.7-2c-0.3-0.6-0.7-0.9-1.2-1.3c-0.4-0.3-0.9-0.4-1.4-0.4h-60.9v12.5h60.9c0.5,0,1-0.1,1.4-0.4
			c0.5-0.3,0.9-0.7,1.2-1.1c0.3-0.5,0.5-1.1,0.7-1.9c0.1-0.8,0.2-1.6,0.2-2.6C1617.3,411.3,1617.2,410.3,1617.1,409.6z
			 M1608.8,474.2c-0.1-0.8-0.4-1.4-0.7-1.9c-0.3-0.5-0.7-0.9-1.1-1.1s-1-0.4-1.6-0.4h-52.5v12.1h52.5c0.6,0,1.2-0.1,1.6-0.3
			c0.4-0.3,0.8-0.6,1.1-1.1c0.3-0.4,0.6-1,0.7-1.8c0.1-0.8,0.3-1.6,0.3-2.6C1609.1,475.9,1608.9,475,1608.8,474.2z M1618.2,545.5
			c-0.2-0.8-0.4-1.4-0.8-1.9c-0.3-0.5-0.8-0.9-1.2-1.2c-0.4-0.3-0.9-0.4-1.5-0.4h-61.9v12.5h61.9c0.6,0,1.1-0.1,1.5-0.4
			c0.4-0.3,0.9-0.7,1.2-1.2c0.4-0.6,0.6-1.2,0.8-1.9c0.1-0.8,0.3-1.7,0.3-2.6C1618.5,547.2,1618.4,546.2,1618.2,545.5z
			 M2116.3,409.2c-0.2-0.8-0.4-1.5-0.7-2c-0.3-0.6-0.7-0.9-1.2-1.3c-0.4-0.3-0.9-0.4-1.4-0.4h-60.9v12.5h60.9c0.5,0,1-0.1,1.4-0.4
			c0.5-0.3,0.9-0.7,1.2-1.1c0.3-0.5,0.5-1.1,0.7-1.9c0.1-0.8,0.2-1.6,0.2-2.6C2116.5,410.9,2116.4,410,2116.3,409.2z M2108,473.8
			c-0.1-0.8-0.4-1.4-0.7-1.9c-0.3-0.5-0.7-0.9-1.1-1.1s-1-0.4-1.6-0.4h-52.5v12.1h52.5c0.6,0,1.2-0.1,1.6-0.3
			c0.4-0.3,0.8-0.6,1.1-1.1c0.3-0.4,0.6-1,0.7-1.8s0.3-1.6,0.3-2.6C2108.3,475.6,2108.1,474.6,2108,473.8z M2117.4,545.1
			c-0.2-0.8-0.4-1.4-0.8-1.9c-0.3-0.5-0.8-0.9-1.2-1.2c-0.4-0.3-0.9-0.4-1.5-0.4h-61.9v12.5h61.9c0.6,0,1.1-0.1,1.5-0.4
			s0.9-0.7,1.2-1.2c0.4-0.6,0.6-1.2,0.8-1.9c0.1-0.8,0.3-1.7,0.3-2.6C2117.7,546.8,2117.6,545.9,2117.4,545.1z M2457.6,409.2
			c-0.2-0.8-0.4-1.5-0.7-2c-0.3-0.6-0.7-0.9-1.2-1.3c-0.4-0.3-0.9-0.4-1.4-0.4h-60.9v12.5h60.9c0.5,0,1-0.1,1.4-0.4
			c0.5-0.3,0.9-0.7,1.2-1.1c0.3-0.5,0.5-1.1,0.7-1.9c0.1-0.8,0.2-1.6,0.2-2.6C2457.8,410.9,2457.7,410,2457.6,409.2z M2449.3,473.8
			c-0.1-0.8-0.4-1.4-0.7-1.9c-0.3-0.5-0.7-0.9-1.1-1.1c-0.4-0.3-1-0.4-1.6-0.4h-52.5v12.1h52.5c0.6,0,1.2-0.1,1.6-0.3
			c0.4-0.3,0.8-0.6,1.1-1.1c0.3-0.4,0.6-1,0.7-1.8s0.3-1.6,0.3-2.6C2449.5,475.6,2449.4,474.6,2449.3,473.8z M2458.7,545.1
			c-0.2-0.8-0.4-1.4-0.8-1.9c-0.3-0.5-0.8-0.9-1.2-1.2c-0.4-0.3-0.9-0.4-1.5-0.4h-61.9v12.5h61.9c0.6,0,1.1-0.1,1.5-0.4
			s0.9-0.7,1.2-1.2c0.4-0.6,0.6-1.2,0.8-1.9c0.1-0.8,0.3-1.7,0.3-2.6C2459,546.8,2458.8,545.9,2458.7,545.1z M1760.3,547.7
			c0,1.4-0.2,2.5-0.6,3.4c-0.4,0.9-1,1.7-1.6,2.2c-0.6,0.6-1.4,1-2.2,1.2c-0.8,0.2-1.5,0.3-2.2,0.3h-2.9c-1.5,0-2.9-0.2-4.2-0.6
			c-1.3-0.4-2.5-1-3.7-2c-1.2-1-2.4-2.2-3.6-3.8c-1.2-1.6-2.5-3.7-4-6.2l-52.3-92.8c-2.6-4.5-5.2-9.2-7.9-13.9
			c-2.6-4.8-5.2-9.4-7.5-13.9h-0.1c0.1,5.6,0.1,11.3,0.1,17.2c0,5.9,0,11.6,0,17.2v96.2c0,0.5-0.1,0.9-0.3,1.3s-0.6,0.7-1.2,0.9
			c-0.5,0.2-1.2,0.4-2.1,0.6c-0.9,0.2-2,0.2-3.4,0.2c-1.3,0-2.4-0.1-3.3-0.2c-0.9-0.2-1.7-0.3-2.2-0.6c-0.5-0.2-0.9-0.5-1.2-0.9
			c-0.2-0.4-0.3-0.8-0.3-1.3v-139c0-2.8,0.7-4.6,2.2-5.7c1.5-1,2.9-1.5,4.3-1.5h5.7c1.8,0,3.4,0.2,4.6,0.5s2.3,0.8,3.3,1.5
			c1,0.7,2,1.8,2.9,3.1c1,1.3,2,3,3.2,5.1l40.1,71.1c2.5,4.4,4.9,8.7,7.2,12.8c2.3,4.1,4.5,8.1,6.6,12.1c2.1,3.9,4.3,7.8,6.4,11.7
			c2.1,3.8,4.2,7.7,6.3,11.6h0.1c-0.1-6.4-0.1-13.1-0.1-20.1c0-7,0-13.7,0-20.1v-86.4c0-0.5,0.1-0.9,0.3-1.3c0.2-0.4,0.6-0.7,1.2-1
			c0.5-0.3,1.2-0.5,2.1-0.6c0.9-0.1,2-0.2,3.4-0.2c1.2,0,2.3,0.1,3.2,0.2c0.9,0.1,1.6,0.3,2.2,0.6c0.5,0.3,0.9,0.6,1.2,1
			c0.3,0.4,0.4,0.8,0.4,1.3L1760.3,547.7L1760.3,547.7z M1893.7,412.4c0,1-0.1,1.9-0.2,2.6c-0.2,0.8-0.4,1.4-0.7,1.9
			c-0.3,0.5-0.7,0.9-1.2,1.2c-0.5,0.3-1,0.4-1.5,0.4h-44.3v133.7c0,0.5-0.1,0.9-0.3,1.3c-0.2,0.4-0.6,0.7-1.2,0.9
			c-0.5,0.2-1.3,0.4-2.2,0.6c-0.9,0.2-2,0.2-3.3,0.2c-1.3,0-2.4-0.1-3.3-0.2c-0.9-0.2-1.6-0.3-2.2-0.6c-0.5-0.2-0.9-0.5-1.2-0.9
			c-0.2-0.4-0.3-0.8-0.3-1.3V418.4h-44.3c-0.6,0-1.1-0.1-1.5-0.4c-0.4-0.3-0.8-0.6-1.1-1.2s-0.5-1.1-0.7-1.9
			c-0.1-0.8-0.2-1.6-0.2-2.6c0-1.1,0.1-2,0.2-2.8c0.2-0.8,0.4-1.5,0.7-2s0.7-0.9,1.1-1.2c0.4-0.3,0.9-0.4,1.5-0.4h102.6
			c0.5,0,1,0.1,1.5,0.4c0.5,0.3,0.8,0.7,1.2,1.2c0.3,0.5,0.5,1.2,0.7,2C1893.6,410.3,1893.7,411.3,1893.7,412.4z M1969.7,551.9
			c-0.2,0.6-0.6,1.1-1,1.5c-0.5,0.4-1,0.8-1.8,1c-0.7,0.2-1.6,0.4-2.6,0.5c-1,0.1-2.2,0.2-3.5,0.2c-0.9,0-1.8,0-2.5-0.1
			c-0.8,0-1.4-0.1-2.1-0.2c-0.6-0.1-1.2-0.3-1.6-0.4c-0.5-0.2-0.9-0.3-1.3-0.6c-0.4-0.2-0.7-0.5-0.9-0.8c-0.2-0.3-0.4-0.7-0.6-1.2
			L1901,410.6c-0.5-1.2-0.7-2.1-0.6-2.8c0-0.7,0.3-1.3,0.9-1.7c0.5-0.4,1.3-0.6,2.4-0.8c1.1-0.1,2.5-0.2,4.3-0.2
			c1.4,0,2.6,0.1,3.5,0.2c0.9,0.1,1.6,0.3,2.1,0.5c0.5,0.2,0.9,0.5,1.2,0.9c0.3,0.4,0.5,0.8,0.8,1.4l46.1,130.7h0.1l44.8-130.7
			c0.1-0.5,0.3-1,0.6-1.4c0.2-0.4,0.6-0.7,1.2-0.9s1.4-0.4,2.3-0.5c1-0.1,2.3-0.2,3.9-0.2c1.8,0,3.2,0.1,4.2,0.2
			c1,0.2,1.8,0.4,2.2,0.8c0.4,0.4,0.6,0.9,0.6,1.6c0,0.7-0.3,1.6-0.7,2.8L1969.7,551.9z M2255.5,551.9c0,0.5-0.1,1-0.3,1.4
			c-0.2,0.4-0.6,0.7-1.1,1c-0.5,0.3-1.3,0.5-2.3,0.6c-1,0.2-2.2,0.2-3.6,0.2c-1.3,0-2.4-0.1-3.3-0.2c-0.9-0.1-1.6-0.3-2.2-0.7
			c-0.6-0.3-1.1-0.8-1.5-1.4c-0.4-0.6-0.7-1.3-1-2.2l-13.9-36c-1.6-4.1-3.3-7.9-5.2-11.5c-1.8-3.6-4.1-6.7-6.7-9.4
			c-2.6-2.6-5.7-4.7-9.4-6.3c-3.7-1.5-8.1-2.3-13.2-2.3h-15.4v66.9c0,0.5-0.1,0.9-0.3,1.3c-0.2,0.4-0.6,0.7-1.2,0.9
			c-0.5,0.2-1.2,0.4-2.1,0.6c-0.9,0.2-2,0.2-3.4,0.2c-1.3,0-2.4-0.1-3.3-0.2c-0.9-0.2-1.6-0.3-2.2-0.6c-0.5-0.2-0.9-0.5-1.2-0.9
			s-0.3-0.8-0.3-1.3v-139c0-2.8,0.7-4.6,2.2-5.7c1.4-1,2.9-1.5,4.3-1.5h27.9c3.7,0,6.7,0.1,9.1,0.3c2.4,0.2,4.6,0.4,6.6,0.8
			c5.7,1,10.6,2.6,14.8,4.8c4.2,2.2,7.7,5,10.4,8.2c2.8,3.3,4.8,6.9,6.1,11c1.3,4.1,2,8.5,2,13.3c0,4.9-0.7,9.3-2.1,13.1
			c-1.4,3.9-3.3,7.3-5.9,10.2c-2.5,2.9-5.5,5.5-9.1,7.6c-3.5,2.1-7.4,3.9-11.6,5.4c2.5,1.2,4.8,2.6,6.8,4.3c2,1.7,3.9,3.7,5.6,6.1
			c1.7,2.4,3.4,5.1,4.9,8.2c1.5,3.1,3.1,6.6,4.6,10.4l13.9,34.7c1,2.7,1.6,4.5,1.9,5.5C2255.4,550.8,2255.5,551.5,2255.5,551.9z
			 M2230.8,445.8c0-6.3-1.4-11.7-4.3-16.1c-2.8-4.4-7.6-7.5-14.2-9.5c-2.2-0.6-4.6-1-7.2-1.3c-2.6-0.3-6-0.4-10.2-0.4h-18.4V473
			h21.3c5.7,0,10.7-0.7,14.8-2.1c4.1-1.4,7.5-3.4,10.3-5.8s4.7-5.3,6-8.6C2230.2,453.2,2230.8,449.6,2230.8,445.8z M2359.4,514.3
			c0,6.6-1.2,12.5-3.6,17.7s-5.7,9.6-10,13.3c-4.3,3.6-9.4,6.4-15.3,8.3c-5.9,1.9-12.3,2.9-19.3,2.9c-4.8,0-9.2-0.4-13.4-1.3
			c-4.2-0.9-8-1.9-11.2-3.2c-3.3-1.2-6.1-2.5-8.3-3.7c-2.3-1.3-3.8-2.3-4.6-3.2c-0.8-0.9-1.5-1.9-1.8-3.1c-0.4-1.2-0.6-2.7-0.6-4.4
			c0-1.3,0.1-2.4,0.2-3.2c0.2-0.8,0.4-1.5,0.6-2.1c0.3-0.5,0.6-0.9,1-1.1c0.4-0.2,0.9-0.3,1.3-0.3c1.1,0,2.6,0.7,4.5,2
			c1.9,1.3,4.5,2.8,7.6,4.4c3.1,1.6,6.8,3,11.1,4.4c4.3,1.3,9.4,2,15.1,2c4.7,0,8.9-0.6,12.8-1.9s7.3-3.1,10.1-5.5s5-5.3,6.6-8.8
			c1.6-3.5,2.3-7.4,2.3-11.9c0-4.6-1-8.5-3-11.8s-4.6-6.2-7.9-8.7c-3.3-2.5-6.9-4.7-11.1-6.8c-4.1-2-8.4-4.1-12.7-6.1
			c-4.3-2-8.6-4.2-12.7-6.6c-4.1-2.4-7.8-5.1-11.1-8.3c-3.3-3.2-5.9-6.9-7.9-11.2c-2-4.3-3-9.4-3-15.3c0-5.7,1-10.9,3.1-15.4
			c2.1-4.6,5-8.4,8.7-11.6c3.7-3.2,8.3-5.6,13.5-7.3c5.2-1.7,11-2.5,17.3-2.5c3.1,0,6.3,0.3,9.5,0.9c3.2,0.6,6.3,1.4,9.1,2.3
			c2.9,1,5.4,2,7.7,3.2c2.3,1.2,3.7,2.1,4.5,2.9s1.2,1.3,1.4,1.6c0.2,0.3,0.4,0.8,0.5,1.3c0.1,0.5,0.3,1.2,0.3,1.9s0.1,1.6,0.1,2.7
			c0,1-0.1,1.9-0.2,2.7c-0.1,0.8-0.3,1.5-0.5,2.1c-0.2,0.6-0.5,1-0.9,1.3c-0.3,0.3-0.8,0.5-1.2,0.5c-0.8,0-2.1-0.6-3.8-1.7
			c-1.7-1.1-3.9-2.3-6.5-3.7c-2.6-1.4-5.7-2.6-9.3-3.7c-3.6-1.1-7.7-1.7-12.3-1.7c-4.5,0-8.4,0.6-11.8,1.8s-6.2,2.9-8.4,5
			c-2.2,2.1-3.9,4.6-5,7.4c-1.1,2.8-1.7,5.8-1.7,9c0,4.6,1,8.5,3,11.8c2,3.3,4.6,6.2,7.9,8.7c3.3,2.5,7,4.8,11.2,6.8
			c4.2,2,8.4,4.1,12.7,6.1c4.3,2,8.6,4.2,12.7,6.5c4.2,2.3,7.9,5.1,11.2,8.3c3.3,3.2,5.9,6.9,7.9,11.1
			C2358.4,503.4,2359.4,508.5,2359.4,514.3z"/>
	</g>
	<g>
		
			<image style="overflow:visible;enable-background:new    ;" width="1043" height="190" xlink:href="12CE91AC40E10541.png"  transform="matrix(1.3175 0 0 1.3175 1145.7512 360.3957)">
		</image>
	</g>
	<path class="st2" d="M1302.6,412.4c0,1-0.1,1.9-0.2,2.6c-0.2,0.8-0.4,1.4-0.7,1.9c-0.3,0.5-0.7,0.9-1.2,1.2c-0.5,0.3-1,0.4-1.5,0.4
		h-44.3v133.7c0,0.5-0.1,0.9-0.3,1.3c-0.2,0.4-0.6,0.7-1.2,0.9c-0.5,0.2-1.3,0.4-2.2,0.6c-0.9,0.2-2,0.2-3.3,0.2s-2.4-0.1-3.3-0.2
		c-0.9-0.2-1.6-0.3-2.2-0.6c-0.5-0.2-0.9-0.5-1.1-0.9c-0.2-0.4-0.3-0.8-0.3-1.3V418.4h-44.3c-0.6,0-1.1-0.1-1.5-0.4
		c-0.4-0.3-0.8-0.6-1.1-1.2c-0.3-0.5-0.5-1.1-0.7-1.9c-0.2-0.8-0.2-1.6-0.2-2.6c0-1.1,0.1-2,0.2-2.8c0.1-0.8,0.4-1.5,0.7-2
		c0.3-0.5,0.7-0.9,1.1-1.2c0.4-0.3,0.9-0.4,1.5-0.4h102.6c0.5,0,1,0.1,1.5,0.4c0.5,0.3,0.8,0.7,1.2,1.2c0.3,0.5,0.5,1.2,0.7,2
		C1302.5,410.3,1302.6,411.3,1302.6,412.4z M1413.4,549.8c0.5,1.2,0.7,2.1,0.6,2.8c0,0.7-0.3,1.3-0.8,1.7s-1.3,0.6-2.3,0.7
		c-1,0.1-2.3,0.2-4,0.2c-1.6,0-2.9-0.1-3.9-0.2c-1-0.1-1.7-0.3-2.2-0.5c-0.5-0.2-0.9-0.5-1.2-0.9c-0.3-0.4-0.5-0.8-0.8-1.4
		l-14.2-39.6h-65.2l-13.7,39.4c-0.2,0.5-0.4,1-0.7,1.4c-0.3,0.4-0.7,0.7-1.3,1c-0.5,0.3-1.3,0.5-2.2,0.6c-1,0.2-2.2,0.2-3.6,0.2
		c-1.6,0-3-0.1-4-0.2c-1.1-0.2-1.9-0.4-2.4-0.8c-0.5-0.4-0.8-0.9-0.8-1.6c0-0.7,0.2-1.6,0.6-2.8l52-141.3c0.2-0.6,0.6-1.1,1-1.5
		c0.5-0.4,1-0.7,1.8-1c0.7-0.2,1.6-0.4,2.6-0.5s2.2-0.2,3.5-0.2c1.4,0,2.6,0.1,3.6,0.2c1,0.1,1.9,0.3,2.6,0.5c0.7,0.2,1.3,0.6,1.7,1
		c0.4,0.4,0.7,0.9,1,1.5L1413.4,549.8z M1351.7,421h-0.1l-28,79.9h56.8L1351.7,421z M1514.8,548c0,1.1-0.1,2-0.2,2.8
		c-0.2,0.8-0.4,1.4-0.7,2c-0.3,0.6-0.7,1-1.2,1.3s-1,0.4-1.6,0.4h-64.4c-1.4,0-2.8-0.5-4.3-1.5c-1.5-1-2.2-2.9-2.2-5.7v-139
		c0-0.5,0.1-0.9,0.3-1.3c0.2-0.4,0.6-0.7,1.2-0.9c0.5-0.2,1.3-0.4,2.2-0.6c0.9-0.2,2-0.2,3.3-0.2c1.4,0,2.5,0.1,3.4,0.2
		c0.9,0.2,1.6,0.3,2.1,0.6c0.5,0.2,0.9,0.5,1.2,0.9c0.2,0.4,0.3,0.8,0.3,1.3v133.5h56.8c0.6,0,1.2,0.1,1.6,0.4
		c0.5,0.3,0.8,0.6,1.2,1.2c0.3,0.5,0.5,1.2,0.7,1.9C1514.8,546,1514.8,547,1514.8,548z M1617.1,409.6c-0.2-0.8-0.4-1.5-0.7-2
		c-0.3-0.6-0.7-0.9-1.2-1.3c-0.4-0.3-0.9-0.4-1.4-0.4h-60.9v12.5h60.9c0.5,0,1-0.1,1.4-0.4c0.5-0.3,0.9-0.7,1.2-1.1
		c0.3-0.5,0.5-1.1,0.7-1.9c0.1-0.8,0.2-1.6,0.2-2.6C1617.3,411.3,1617.2,410.3,1617.1,409.6z M1608.8,474.2
		c-0.1-0.8-0.4-1.4-0.7-1.9c-0.3-0.5-0.7-0.9-1.1-1.1s-1-0.4-1.6-0.4h-52.5v12.1h52.5c0.6,0,1.2-0.1,1.6-0.3
		c0.4-0.3,0.8-0.6,1.1-1.1c0.3-0.4,0.6-1,0.7-1.8c0.1-0.8,0.3-1.6,0.3-2.6C1609.1,475.9,1608.9,475,1608.8,474.2z M1618.2,545.5
		c-0.2-0.8-0.4-1.4-0.8-1.9c-0.3-0.5-0.8-0.9-1.2-1.2c-0.4-0.3-0.9-0.4-1.5-0.4h-61.9v12.5h61.9c0.6,0,1.1-0.1,1.5-0.4
		c0.4-0.3,0.9-0.7,1.2-1.2c0.4-0.6,0.6-1.2,0.8-1.9c0.1-0.8,0.3-1.7,0.3-2.6C1618.5,547.2,1618.4,546.2,1618.2,545.5z M2116.3,409.2
		c-0.2-0.8-0.4-1.5-0.7-2c-0.3-0.6-0.7-0.9-1.2-1.3c-0.4-0.3-0.9-0.4-1.4-0.4h-60.9v12.5h60.9c0.5,0,1-0.1,1.4-0.4
		c0.5-0.3,0.9-0.7,1.2-1.1c0.3-0.5,0.5-1.1,0.7-1.9c0.1-0.8,0.2-1.6,0.2-2.6C2116.5,410.9,2116.4,410,2116.3,409.2z M2108,473.8
		c-0.1-0.8-0.4-1.4-0.7-1.9c-0.3-0.5-0.7-0.9-1.1-1.1s-1-0.4-1.6-0.4h-52.5v12.1h52.5c0.6,0,1.2-0.1,1.6-0.3
		c0.4-0.3,0.8-0.6,1.1-1.1c0.3-0.4,0.6-1,0.7-1.8s0.3-1.6,0.3-2.6C2108.3,475.6,2108.1,474.6,2108,473.8z M2117.4,545.1
		c-0.2-0.8-0.4-1.4-0.8-1.9c-0.3-0.5-0.8-0.9-1.2-1.2c-0.4-0.3-0.9-0.4-1.5-0.4h-61.9v12.5h61.9c0.6,0,1.1-0.1,1.5-0.4
		s0.9-0.7,1.2-1.2c0.4-0.6,0.6-1.2,0.8-1.9c0.1-0.8,0.3-1.7,0.3-2.6C2117.7,546.8,2117.6,545.9,2117.4,545.1z M2457.6,409.2
		c-0.2-0.8-0.4-1.5-0.7-2c-0.3-0.6-0.7-0.9-1.2-1.3c-0.4-0.3-0.9-0.4-1.4-0.4h-60.9v12.5h60.9c0.5,0,1-0.1,1.4-0.4
		c0.5-0.3,0.9-0.7,1.2-1.1c0.3-0.5,0.5-1.1,0.7-1.9c0.1-0.8,0.2-1.6,0.2-2.6C2457.8,410.9,2457.7,410,2457.6,409.2z M2449.3,473.8
		c-0.1-0.8-0.4-1.4-0.7-1.9c-0.3-0.5-0.7-0.9-1.1-1.1c-0.4-0.3-1-0.4-1.6-0.4h-52.5v12.1h52.5c0.6,0,1.2-0.1,1.6-0.3
		c0.4-0.3,0.8-0.6,1.1-1.1c0.3-0.4,0.6-1,0.7-1.8s0.3-1.6,0.3-2.6C2449.5,475.6,2449.4,474.6,2449.3,473.8z M2458.7,545.1
		c-0.2-0.8-0.4-1.4-0.8-1.9c-0.3-0.5-0.8-0.9-1.2-1.2c-0.4-0.3-0.9-0.4-1.5-0.4h-61.9v12.5h61.9c0.6,0,1.1-0.1,1.5-0.4
		s0.9-0.7,1.2-1.2c0.4-0.6,0.6-1.2,0.8-1.9c0.1-0.8,0.3-1.7,0.3-2.6C2459,546.8,2458.8,545.9,2458.7,545.1z M1760.3,547.7
		c0,1.4-0.2,2.5-0.6,3.4c-0.4,0.9-1,1.7-1.6,2.2c-0.6,0.6-1.4,1-2.2,1.2c-0.8,0.2-1.5,0.3-2.2,0.3h-2.9c-1.5,0-2.9-0.2-4.2-0.6
		c-1.3-0.4-2.5-1-3.7-2c-1.2-1-2.4-2.2-3.6-3.8c-1.2-1.6-2.5-3.7-4-6.2l-52.3-92.8c-2.6-4.5-5.2-9.2-7.9-13.9
		c-2.6-4.8-5.2-9.4-7.5-13.9h-0.1c0.1,5.6,0.1,11.3,0.1,17.2c0,5.9,0,11.6,0,17.2v96.2c0,0.5-0.1,0.9-0.3,1.3s-0.6,0.7-1.2,0.9
		c-0.5,0.2-1.2,0.4-2.1,0.6c-0.9,0.2-2,0.2-3.4,0.2c-1.3,0-2.4-0.1-3.3-0.2c-0.9-0.2-1.7-0.3-2.2-0.6c-0.5-0.2-0.9-0.5-1.2-0.9
		c-0.2-0.4-0.3-0.8-0.3-1.3v-139c0-2.8,0.7-4.6,2.2-5.7c1.5-1,2.9-1.5,4.3-1.5h5.7c1.8,0,3.4,0.2,4.6,0.5s2.3,0.8,3.3,1.5
		c1,0.7,2,1.8,2.9,3.1c1,1.3,2,3,3.2,5.1l40.1,71.1c2.5,4.4,4.9,8.7,7.2,12.8c2.3,4.1,4.5,8.1,6.6,12.1c2.1,3.9,4.3,7.8,6.4,11.7
		c2.1,3.8,4.2,7.7,6.3,11.6h0.1c-0.1-6.4-0.1-13.1-0.1-20.1c0-7,0-13.7,0-20.1v-86.4c0-0.5,0.1-0.9,0.3-1.3c0.2-0.4,0.6-0.7,1.2-1
		c0.5-0.3,1.2-0.5,2.1-0.6c0.9-0.1,2-0.2,3.4-0.2c1.2,0,2.3,0.1,3.2,0.2c0.9,0.1,1.6,0.3,2.2,0.6c0.5,0.3,0.9,0.6,1.2,1
		c0.3,0.4,0.4,0.8,0.4,1.3L1760.3,547.7L1760.3,547.7z M1893.7,412.4c0,1-0.1,1.9-0.2,2.6c-0.2,0.8-0.4,1.4-0.7,1.9
		c-0.3,0.5-0.7,0.9-1.2,1.2c-0.5,0.3-1,0.4-1.5,0.4h-44.3v133.7c0,0.5-0.1,0.9-0.3,1.3c-0.2,0.4-0.6,0.7-1.2,0.9
		c-0.5,0.2-1.3,0.4-2.2,0.6c-0.9,0.2-2,0.2-3.3,0.2c-1.3,0-2.4-0.1-3.3-0.2c-0.9-0.2-1.6-0.3-2.2-0.6c-0.5-0.2-0.9-0.5-1.2-0.9
		c-0.2-0.4-0.3-0.8-0.3-1.3V418.4h-44.3c-0.6,0-1.1-0.1-1.5-0.4c-0.4-0.3-0.8-0.6-1.1-1.2s-0.5-1.1-0.7-1.9
		c-0.1-0.8-0.2-1.6-0.2-2.6c0-1.1,0.1-2,0.2-2.8c0.2-0.8,0.4-1.5,0.7-2s0.7-0.9,1.1-1.2c0.4-0.3,0.9-0.4,1.5-0.4h102.6
		c0.5,0,1,0.1,1.5,0.4c0.5,0.3,0.8,0.7,1.2,1.2c0.3,0.5,0.5,1.2,0.7,2C1893.6,410.3,1893.7,411.3,1893.7,412.4z M1969.7,551.9
		c-0.2,0.6-0.6,1.1-1,1.5c-0.5,0.4-1,0.8-1.8,1c-0.7,0.2-1.6,0.4-2.6,0.5c-1,0.1-2.2,0.2-3.5,0.2c-0.9,0-1.8,0-2.5-0.1
		c-0.8,0-1.4-0.1-2.1-0.2c-0.6-0.1-1.2-0.3-1.6-0.4c-0.5-0.2-0.9-0.3-1.3-0.6c-0.4-0.2-0.7-0.5-0.9-0.8c-0.2-0.3-0.4-0.7-0.6-1.2
		L1901,410.6c-0.5-1.2-0.7-2.1-0.6-2.8c0-0.7,0.3-1.3,0.9-1.7c0.5-0.4,1.3-0.6,2.4-0.8c1.1-0.1,2.5-0.2,4.3-0.2
		c1.4,0,2.6,0.1,3.5,0.2c0.9,0.1,1.6,0.3,2.1,0.5c0.5,0.2,0.9,0.5,1.2,0.9c0.3,0.4,0.5,0.8,0.8,1.4l46.1,130.7h0.1l44.8-130.7
		c0.1-0.5,0.3-1,0.6-1.4c0.2-0.4,0.6-0.7,1.2-0.9s1.4-0.4,2.3-0.5c1-0.1,2.3-0.2,3.9-0.2c1.8,0,3.2,0.1,4.2,0.2
		c1,0.2,1.8,0.4,2.2,0.8c0.4,0.4,0.6,0.9,0.6,1.6c0,0.7-0.3,1.6-0.7,2.8L1969.7,551.9z M2255.5,551.9c0,0.5-0.1,1-0.3,1.4
		c-0.2,0.4-0.6,0.7-1.1,1c-0.5,0.3-1.3,0.5-2.3,0.6c-1,0.2-2.2,0.2-3.6,0.2c-1.3,0-2.4-0.1-3.3-0.2c-0.9-0.1-1.6-0.3-2.2-0.7
		c-0.6-0.3-1.1-0.8-1.5-1.4c-0.4-0.6-0.7-1.3-1-2.2l-13.9-36c-1.6-4.1-3.3-7.9-5.2-11.5c-1.8-3.6-4.1-6.7-6.7-9.4
		c-2.6-2.6-5.7-4.7-9.4-6.3c-3.7-1.5-8.1-2.3-13.2-2.3h-15.4v66.9c0,0.5-0.1,0.9-0.3,1.3c-0.2,0.4-0.6,0.7-1.2,0.9
		c-0.5,0.2-1.2,0.4-2.1,0.6c-0.9,0.2-2,0.2-3.4,0.2c-1.3,0-2.4-0.1-3.3-0.2c-0.9-0.2-1.6-0.3-2.2-0.6c-0.5-0.2-0.9-0.5-1.2-0.9
		s-0.3-0.8-0.3-1.3v-139c0-2.8,0.7-4.6,2.2-5.7c1.4-1,2.9-1.5,4.3-1.5h27.9c3.7,0,6.7,0.1,9.1,0.3c2.4,0.2,4.6,0.4,6.6,0.8
		c5.7,1,10.6,2.6,14.8,4.8c4.2,2.2,7.7,5,10.4,8.2c2.8,3.3,4.8,6.9,6.1,11c1.3,4.1,2,8.5,2,13.3c0,4.9-0.7,9.3-2.1,13.1
		c-1.4,3.9-3.3,7.3-5.9,10.2c-2.5,2.9-5.5,5.5-9.1,7.6c-3.5,2.1-7.4,3.9-11.6,5.4c2.5,1.2,4.8,2.6,6.8,4.3c2,1.7,3.9,3.7,5.6,6.1
		c1.7,2.4,3.4,5.1,4.9,8.2c1.5,3.1,3.1,6.6,4.6,10.4l13.9,34.7c1,2.7,1.6,4.5,1.9,5.5C2255.4,550.8,2255.5,551.5,2255.5,551.9z
		 M2230.8,445.8c0-6.3-1.4-11.7-4.3-16.1c-2.8-4.4-7.6-7.5-14.2-9.5c-2.2-0.6-4.6-1-7.2-1.3c-2.6-0.3-6-0.4-10.2-0.4h-18.4V473h21.3
		c5.7,0,10.7-0.7,14.8-2.1c4.1-1.4,7.5-3.4,10.3-5.8s4.7-5.3,6-8.6C2230.2,453.2,2230.8,449.6,2230.8,445.8z M2359.4,514.3
		c0,6.6-1.2,12.5-3.6,17.7s-5.7,9.6-10,13.3c-4.3,3.6-9.4,6.4-15.3,8.3c-5.9,1.9-12.3,2.9-19.3,2.9c-4.8,0-9.2-0.4-13.4-1.3
		c-4.2-0.9-8-1.9-11.2-3.2c-3.3-1.2-6.1-2.5-8.3-3.7c-2.3-1.3-3.8-2.3-4.6-3.2c-0.8-0.9-1.5-1.9-1.8-3.1c-0.4-1.2-0.6-2.7-0.6-4.4
		c0-1.3,0.1-2.4,0.2-3.2c0.2-0.8,0.4-1.5,0.6-2.1c0.3-0.5,0.6-0.9,1-1.1c0.4-0.2,0.9-0.3,1.3-0.3c1.1,0,2.6,0.7,4.5,2
		c1.9,1.3,4.5,2.8,7.6,4.4c3.1,1.6,6.8,3,11.1,4.4c4.3,1.3,9.4,2,15.1,2c4.7,0,8.9-0.6,12.8-1.9s7.3-3.1,10.1-5.5s5-5.3,6.6-8.8
		c1.6-3.5,2.3-7.4,2.3-11.9c0-4.6-1-8.5-3-11.8s-4.6-6.2-7.9-8.7c-3.3-2.5-6.9-4.7-11.1-6.8c-4.1-2-8.4-4.1-12.7-6.1
		c-4.3-2-8.6-4.2-12.7-6.6c-4.1-2.4-7.8-5.1-11.1-8.3c-3.3-3.2-5.9-6.9-7.9-11.2c-2-4.3-3-9.4-3-15.3c0-5.7,1-10.9,3.1-15.4
		c2.1-4.6,5-8.4,8.7-11.6c3.7-3.2,8.3-5.6,13.5-7.3c5.2-1.7,11-2.5,17.3-2.5c3.1,0,6.3,0.3,9.5,0.9c3.2,0.6,6.3,1.4,9.1,2.3
		c2.9,1,5.4,2,7.7,3.2c2.3,1.2,3.7,2.1,4.5,2.9s1.2,1.3,1.4,1.6c0.2,0.3,0.4,0.8,0.5,1.3c0.1,0.5,0.3,1.2,0.3,1.9s0.1,1.6,0.1,2.7
		c0,1-0.1,1.9-0.2,2.7c-0.1,0.8-0.3,1.5-0.5,2.1c-0.2,0.6-0.5,1-0.9,1.3c-0.3,0.3-0.8,0.5-1.2,0.5c-0.8,0-2.1-0.6-3.8-1.7
		c-1.7-1.1-3.9-2.3-6.5-3.7c-2.6-1.4-5.7-2.6-9.3-3.7c-3.6-1.1-7.7-1.7-12.3-1.7c-4.5,0-8.4,0.6-11.8,1.8s-6.2,2.9-8.4,5
		c-2.2,2.1-3.9,4.6-5,7.4c-1.1,2.8-1.7,5.8-1.7,9c0,4.6,1,8.5,3,11.8c2,3.3,4.6,6.2,7.9,8.7c3.3,2.5,7,4.8,11.2,6.8
		c4.2,2,8.4,4.1,12.7,6.1c4.3,2,8.6,4.2,12.7,6.5c4.2,2.3,7.9,5.1,11.2,8.3c3.3,3.2,5.9,6.9,7.9,11.1
		C2358.4,503.4,2359.4,508.5,2359.4,514.3z"/>
</g>
<image style="overflow:visible;" width="733" height="824" xlink:href="12CE91AC40E1054E.png"  transform="matrix(1.1094 0 0 1.1094 0 0)">
</image>
<g>
	<path class="st3" d="M317.4,629.9c-0.7,0-1.5-0.1-2.1-0.3c-0.6-0.2-1-0.5-1.3-0.6c-0.1-0.1-0.2-0.3-0.3-0.7
		c-0.1-0.4-0.2-1.1-0.2-2.2c0-1.2,0.1-2,0.2-2.4c0.3-0.6,0.4-0.8,0.4-0.9l0.1-0.1l0.1-0.1c0-0.1,0.3-0.2,1-0.5
		c0.5-0.2,1.3-0.3,2.1-0.3h184.5c0.8,0,1.6,0.1,2.2,0.3c0.7,0.2,0.9,0.4,1.1,0.6l0.1,0.1c0,0,0,0,0,0c0,0,0.1,0.2,0.3,0.7
		c0.1,0.4,0.3,1.2,0.3,2.5c0,1.2-0.1,1.9-0.2,2.3c-0.1,0.3-0.2,0.5-0.3,0.6c-0.3,0.2-0.7,0.4-1.3,0.6c-0.6,0.2-1.4,0.3-2.2,0.3
		H317.4z M317.4,475c-0.8,0-1.6-0.1-2.2-0.3c-0.6-0.2-1.1-0.4-1.3-0.6c0-0.1-0.1-0.2-0.3-0.5c-0.1-0.3-0.2-0.9-0.2-1.8
		c0-1,0.1-1.6,0.2-2c0.2-0.5,0.3-0.6,0.4-0.7l0.2-0.2c0,0,0.2-0.2,1-0.5c0.6-0.2,1.4-0.3,2.2-0.3h184.5c0.8,0,1.7,0.1,2.3,0.3
		c0.7,0.2,1,0.4,1.1,0.6l0,0c0,0.1,0.1,0.2,0.3,0.6c0.1,0.4,0.2,1,0.2,2.1c0,1-0.1,1.6-0.2,1.9c-0.1,0.2-0.1,0.3-0.2,0.4
		c-0.3,0.2-0.7,0.4-1.3,0.6c-0.6,0.2-1.5,0.3-2.3,0.3H317.4z M317.4,321.8c-0.8,0-1.5-0.1-2.2-0.3c-0.6-0.2-1-0.4-1.3-0.6
		c-0.1-0.1-0.1-0.3-0.3-0.6c-0.1-0.4-0.2-1-0.2-1.9c0-1.1,0.1-1.8,0.2-2.2c0.2-0.5,0.4-0.7,0.4-0.7l0.2-0.2c0,0,0.2-0.2,1-0.5
		c0.6-0.2,1.4-0.3,2.1-0.3h184.5c0.8,0,1.7,0.1,2.2,0.3c0.7,0.2,0.9,0.4,1.1,0.6l0.1,0.1c0,0.1,0.1,0.2,0.3,0.6
		c0.1,0.4,0.2,1.1,0.2,2.2c0,1-0.1,1.7-0.2,2c-0.1,0.2-0.2,0.4-0.2,0.5c-0.3,0.2-0.7,0.4-1.3,0.6c-0.6,0.2-1.5,0.3-2.2,0.3H317.4z"
		/>
	<path class="st3" d="M501.8,308.9H317.4c-1.4,0-2.8,0.2-3.9,0.6c-1.4,0.5-2.5,1-3.3,1.9c-0.8,0.7-1.4,1.8-1.9,3
		c-0.4,1.1-0.5,2.5-0.5,4.1c0,1.5,0.2,2.8,0.5,3.9c0.5,1.2,1.1,2.2,1.9,2.9c0.8,0.6,1.9,1.2,3.3,1.7c1.2,0.4,2.6,0.6,3.9,0.6h184.5
		c1.4,0,2.8-0.2,4-0.6c1.4-0.5,2.4-1,3.3-1.7c0.8-0.7,1.4-1.7,1.9-2.9c0.4-1.1,0.5-2.4,0.5-3.9c0-1.6-0.2-3-0.5-4.1
		c-0.5-1.2-1-2.2-1.9-3c-0.9-0.8-1.9-1.4-3.3-1.9C504.6,309.1,503.2,308.9,501.8,308.9L501.8,308.9z M501.8,462.5H317.4
		c-1.4,0-2.8,0.2-3.9,0.6c-1.4,0.4-2.5,1-3.3,1.8c-0.8,0.7-1.4,1.7-1.9,2.9c-0.4,1.1-0.5,2.5-0.5,4c0,1.5,0.2,2.8,0.5,3.8
		c0.5,1.2,1.1,2.1,1.9,2.9c0.8,0.6,1.9,1.2,3.3,1.6c1.2,0.3,2.6,0.5,3.9,0.5h184.5c1.4,0,2.8-0.2,4-0.5c1.4-0.5,2.4-1,3.3-1.6
		c0.8-0.7,1.4-1.6,1.9-2.9c0.4-1.1,0.5-2.4,0.5-3.8c0-1.6-0.2-2.9-0.5-4c-0.5-1.2-1-2.2-1.9-2.9c-0.9-0.8-1.9-1.4-3.3-1.8
		C504.6,462.7,503.2,462.5,501.8,462.5L501.8,462.5z M501.8,616.2H317.4c-1.4,0-2.8,0.2-3.9,0.6c-1.4,0.5-2.5,1.1-3.3,2
		c-0.8,0.8-1.4,1.8-1.9,3.1c-0.4,1.2-0.5,2.6-0.5,4.3c0,1.6,0.2,3,0.5,4.1c0.5,1.3,1.1,2.3,1.9,3.1c0.8,0.7,1.9,1.3,3.3,1.8
		c1.2,0.4,2.6,0.6,3.9,0.6h184.5c1.4,0,2.8-0.2,4-0.6c1.4-0.5,2.4-1.1,3.3-1.8c0.8-0.8,1.4-1.8,1.9-3.1c0.4-1.2,0.5-2.5,0.5-4.1
		c0-1.7-0.2-3.1-0.5-4.3c-0.5-1.3-1-2.3-1.9-3.1c-0.9-0.9-1.9-1.5-3.3-2C504.6,616.4,503.2,616.2,501.8,616.2L501.8,616.2z"/>
</g>
<g class="st4">
	<g>
		<path class="st3" d="M97,636.1V278.7l309.5-178.7L716,278.7v357.4L406.5,814.8L97,636.1z M99.9,280.4v354l306.6,177l306.6-177
			v-354l-306.6-177L99.9,280.4z"/>
		<path class="st3" d="M406.5,95.1L92.7,276.3v362.3l313.8,181.2l310.9-179.5l2.9-1.7V276.3L406.5,95.1L406.5,95.1z M406.5,806.5
			L104.2,632V282.9l302.3-174.5l302.3,174.5V632L406.5,806.5L406.5,806.5z"/>
	</g>
</g>
</svg>
