<svg width="75" height="75" viewBox="0 0 75 75" fill="none" xmlns="http://www.w3.org/2000/svg">
<path opacity="0.4" d="M37.5 75C58.2109 75 75 58.2105 75 37.5C75 16.7893 58.2109 0 37.5 0C16.7894 0 0 16.7893 0 37.5C0 58.2105 16.7894 75 37.5 75Z" fill="#2EECC5"/>
<path d="M48.7446 30.8629L37.8696 24.6004C35.1696 23.0254 31.9071 23.0254 29.207 24.6004C26.507 26.1754 24.8945 28.9504 24.8945 32.1004V44.6629C24.8945 47.7754 26.507 50.5879 29.207 52.1629C30.5571 52.9504 32.0571 53.3254 33.5196 53.3254C35.0196 53.3254 36.4821 52.9504 37.8321 52.1629L48.7071 45.9004C51.4071 44.3254 53.0196 41.5504 53.0196 38.4004C53.0946 35.2504 51.4821 32.4379 48.7446 30.8629Z" fill="#2EECC5"/>
</svg>
